<?xml version="1.0" standalone="no"?>
<!DOCTYPE svg PUBLIC "-//W3C//DTD SVG 20010904//EN"
 "http://www.w3.org/TR/2001/REC-SVG-20010904/DTD/svg10.dtd">
<svg version="1.0" xmlns="http://www.w3.org/2000/svg"
 width="150.000000pt" height="150.000000pt" viewBox="0 0 150.000000 150.000000"
 preserveAspectRatio="xMidYMid meet">
<metadata>
Created by potrace 1.11, written by Peter Selinger 2001-2013
</metadata>
<g transform="translate(0.000000,150.000000) scale(0.100000,-0.100000)"
fill="#000000" stroke="none">
<path d="M990 1481 c0 -11 4 -22 9 -25 4 -3 6 6 3 19 -5 30 -12 33 -12 6z"/>
<path d="M1132 1475 c0 -16 2 -22 5 -12 2 9 2 23 0 30 -3 6 -5 -1 -5 -18z"/>
<path d="M1214 1415 c0 -49 1 -71 3 -48 2 23 2 64 0 90 -2 26 -3 8 -3 -42z"/>
<path d="M1241 1484 c0 -11 3 -14 6 -6 3 7 2 16 -1 19 -3 4 -6 -2 -5 -13z"/>
<path d="M901 1474 c0 -11 3 -14 6 -6 3 7 2 16 -1 19 -3 4 -6 -2 -5 -13z"/>
<path d="M1002 1420 c0 -14 2 -19 5 -12 2 6 2 18 0 25 -3 6 -5 1 -5 -13z"/>
<path d="M1132 1400 c0 -19 2 -27 5 -17 2 9 2 25 0 35 -3 9 -5 1 -5 -18z"/>
<path d="M920 1406 c0 -11 40 -86 45 -86 3 0 -4 19 -16 43 -23 45 -29 54 -29
43z"/>
<path d="M1081 1374 c0 -11 3 -14 6 -6 3 7 2 16 -1 19 -3 4 -6 -2 -5 -13z"/>
<path d="M191 1314 c0 -11 3 -14 6 -6 3 7 2 16 -1 19 -3 4 -6 -2 -5 -13z"/>
<path d="M1073 1313 c15 -2 37 -2 50 0 12 2 0 4 -28 4 -27 0 -38 -2 -22 -4z"/>
<path d="M993 1303 c9 -2 23 -2 30 0 6 3 -1 5 -18 5 -16 0 -22 -2 -12 -5z"/>
<path d="M1163 1303 c9 -2 23 -2 30 0 6 3 -1 5 -18 5 -16 0 -22 -2 -12 -5z"/>
<path d="M923 1293 c9 -2 23 -2 30 0 6 3 -1 5 -18 5 -16 0 -22 -2 -12 -5z"/>
<path d="M1085 1290 c3 -5 8 -10 11 -10 2 0 4 5 4 10 0 6 -5 10 -11 10 -5 0
-7 -4 -4 -10z"/>
<path d="M1218 1293 c6 -2 18 -2 25 0 6 3 1 5 -13 5 -14 0 -19 -2 -12 -5z"/>
<path d="M853 1283 c9 -2 23 -2 30 0 6 3 -1 5 -18 5 -16 0 -22 -2 -12 -5z"/>
<path d="M1278 1283 c6 -2 18 -2 25 0 6 3 1 5 -13 5 -14 0 -19 -2 -12 -5z"/>
<path d="M798 1273 c6 -2 18 -2 25 0 6 3 1 5 -13 5 -14 0 -19 -2 -12 -5z"/>
<path d="M1333 1273 c9 -2 23 -2 30 0 6 3 -1 5 -18 5 -16 0 -22 -2 -12 -5z"/>
<path d="M738 1263 c6 -2 18 -2 25 0 6 3 1 5 -13 5 -14 0 -19 -2 -12 -5z"/>
<path d="M1388 1263 c6 -2 18 -2 25 0 6 3 1 5 -13 5 -14 0 -19 -2 -12 -5z"/>
<path d="M322 1230 c0 -19 2 -27 5 -17 2 9 2 25 0 35 -3 9 -5 1 -5 -18z"/>
<path d="M688 1253 c6 -2 18 -2 25 0 6 3 1 5 -13 5 -14 0 -19 -2 -12 -5z"/>
<path d="M1443 1253 c9 -2 23 -2 30 0 6 3 -1 5 -18 5 -16 0 -22 -2 -12 -5z"/>
<path d="M638 1243 c6 -2 18 -2 25 0 6 3 1 5 -13 5 -14 0 -19 -2 -12 -5z"/>
<path d="M588 1233 c6 -2 18 -2 25 0 6 3 1 5 -13 5 -14 0 -19 -2 -12 -5z"/>
<path d="M538 1223 c7 -3 16 -2 19 1 4 3 -2 6 -13 5 -11 0 -14 -3 -6 -6z"/>
<path d="M488 1213 c7 -3 16 -2 19 1 4 3 -2 6 -13 5 -11 0 -14 -3 -6 -6z"/>
<path d="M438 1203 c6 -2 18 -2 25 0 6 3 1 5 -13 5 -14 0 -19 -2 -12 -5z"/>
<path d="M388 1193 c6 -2 18 -2 25 0 6 3 1 5 -13 5 -14 0 -19 -2 -12 -5z"/>
<path d="M333 1183 c9 -2 23 -2 30 0 6 3 -1 5 -18 5 -16 0 -22 -2 -12 -5z"/>
<path d="M262 1168 c-9 -9 -11 -82 -10 -277 l2 -266 6 270 c3 149 7 271 8 272
1 1 12 4 25 6 20 4 20 4 2 6 -12 0 -26 -4 -33 -11z"/>
<path d="M15 1110 c-3 -6 1 -7 9 -4 18 7 21 14 7 14 -6 0 -13 -4 -16 -10z"/>
<path d="M1 946 c1 -45 3 -73 6 -63 2 9 9 17 14 17 5 0 9 8 10 18 0 15 2 14
10 -3 6 -14 8 -4 4 33 -7 65 -12 79 -30 79 -12 0 -15 -17 -14 -81z"/>
<path d="M193 995 c0 -22 2 -30 4 -17 2 12 2 30 0 40 -3 9 -5 -1 -4 -23z"/>
<path d="M1074 920 c0 -58 1 -81 3 -52 2 28 2 76 0 105 -2 28 -3 5 -3 -53z"/>
<path d="M778 999 c-26 -15 -34 -74 -14 -104 9 -14 25 -25 36 -25 24 0 50 36
50 70 0 29 -25 70 -43 70 -7 0 -20 -5 -29 -11z"/>
<path d="M450 950 c-36 -36 -20 -110 25 -110 29 0 45 26 45 72 0 57 -33 75
-70 38z"/>
<path d="M1071 756 c-1 -34 2 -47 9 -40 7 7 7 24 1 50 l-9 39 -1 -49z"/>
<path d="M592 690 l-32 -50 87 0 87 0 -49 50 c-27 28 -52 50 -55 50 -3 0 -20
-23 -38 -50z"/>
<path d="M1070 680 c0 -11 4 -20 8 -20 4 0 8 9 8 20 0 11 -4 20 -8 20 -4 0 -8
-9 -8 -20z"/>
<path d="M1071 582 c1 -34 5 -60 7 -57 10 9 10 93 0 107 -5 8 -8 -10 -7 -50z"/>
<path d="M256 561 c4 -38 3 -40 -29 -44 l-32 -4 31 -1 c22 -2 33 -8 37 -22 4
-15 13 -20 34 -19 l28 2 -27 4 c-27 4 -28 7 -28 64 0 32 -4 59 -9 59 -5 0 -7
-18 -5 -39z"/>
<path d="M198 493 c7 -3 16 -2 19 1 4 3 -2 6 -13 5 -11 0 -14 -3 -6 -6z"/>
<path d="M186 468 c3 -5 10 -6 15 -3 13 9 11 12 -6 12 -8 0 -12 -4 -9 -9z"/>
<path d="M330 455 c0 -8 5 -15 10 -15 6 0 10 4 10 9 0 5 54 9 120 9 l120 0 0
-29 c0 -16 -4 -29 -10 -29 -5 0 -12 -11 -16 -25 -5 -20 -13 -25 -38 -26 l-31
-1 28 -10 c15 -5 27 -14 27 -18 0 -13 -40 -3 -60 15 -21 19 -26 19 -33 1 -4
-10 -1 -13 7 -10 10 4 15 -13 20 -65 4 -39 11 -71 17 -71 5 0 9 -11 9 -25 0
-23 -8 -29 -27 -22 -5 1 -8 17 -8 36 0 20 -6 36 -14 39 -9 3 -11 0 -6 -8 6
-10 4 -12 -9 -7 -11 4 -15 3 -11 -4 4 -6 13 -8 21 -5 10 4 12 -2 7 -27 -3 -18
-10 -36 -14 -42 -15 -16 -10 -25 16 -25 32 0 34 -31 3 -54 -20 -14 -21 -15 -3
-9 19 5 19 5 3 -12 -16 -17 -17 -17 -34 0 -15 15 -29 16 -96 10 l-78 -6 0 30
c0 29 2 31 38 31 29 1 33 3 20 11 -10 5 -29 7 -43 3 -20 -5 -25 -12 -25 -36 0
-27 -3 -29 -24 -24 -20 5 -25 1 -29 -21 -4 -24 -4 -26 8 -10 12 17 31 25 21 8
-3 -5 1 -12 10 -15 25 -10 94 -7 94 4 0 6 7 10 15 10 8 0 15 -3 15 -7 0 -13
54 -12 62 0 6 9 8 9 8 0 0 -7 11 -12 25 -11 14 1 25 3 25 3 0 9 93 364 98 375
4 8 9 -75 12 -185 l6 -200 2 219 2 219 33 -6 32 -6 -29 13 -29 13 29 7 c21 6
32 3 42 -11 13 -16 14 -16 9 0 -6 16 4 17 123 17 l130 0 1 -202 c1 -112 5
-216 9 -233 4 -17 5 33 2 111 -3 78 -2 159 3 180 6 36 8 38 21 19 8 -10 14
-14 14 -8 0 6 15 20 33 32 17 11 27 21 20 21 -6 0 -15 -4 -18 -10 -10 -16 -22
-12 -28 10 -3 11 -1 18 3 15 5 -3 7 8 5 25 -4 36 7 39 28 8 l16 -23 -6 24 c-5
18 -3 22 8 17 8 -3 22 -9 32 -12 24 -9 21 -31 -5 -37 -12 -4 -20 -8 -17 -11 3
-3 25 1 49 9 35 11 39 14 20 15 l-25 2 25 7 c14 4 35 4 48 -1 13 -4 48 -8 77
-8 64 0 57 15 91 -185 l22 -130 -5 90 c-3 50 -8 127 -12 173 -4 45 -3 86 1 90
10 10 -410 22 -769 22 -218 0 -253 -2 -253 -15z m925 -25 c3 -6 -4 -10 -17
-10 -18 0 -20 2 -8 10 19 12 18 12 25 0z m-768 -316 c-3 -3 -12 -4 -19 -1 -8
3 -5 6 6 6 11 1 17 -2 13 -5z"/>
<path d="M1438 463 c12 -2 32 -2 45 0 12 2 2 4 -23 4 -25 0 -35 -2 -22 -4z"/>
<path d="M250 440 c0 -5 5 -10 10 -10 6 0 10 5 10 10 0 6 -4 10 -10 10 -5 0
-10 -4 -10 -10z"/>
<path d="M382 420 c0 -19 2 -27 5 -17 2 9 2 25 0 35 -3 9 -5 1 -5 -18z"/>
<path d="M406 437 c3 -10 9 -15 12 -12 3 3 0 11 -7 18 -10 9 -11 8 -5 -6z"/>
<path d="M7 421 c-4 -17 -3 -21 5 -13 5 5 8 16 6 23 -3 8 -7 3 -11 -10z"/>
<path d="M546 432 c-2 -4 -1 -14 5 -22 7 -12 9 -10 9 8 0 23 -5 28 -14 14z"/>
<path d="M314 402 c0 -10 5 -19 11 -19 6 0 11 9 11 19 0 10 -5 18 -11 18 -6 0
-11 -8 -11 -18z"/>
<path d="M1016 407 c3 -10 9 -15 12 -12 3 3 0 11 -7 18 -10 9 -11 8 -5 -6z"/>
<path d="M645 400 c3 -5 8 -10 11 -10 2 0 4 5 4 10 0 6 -5 10 -11 10 -5 0 -7
-4 -4 -10z"/>
<path d="M361 323 c0 -29 2 -33 8 -18 7 18 4 55 -5 55 -2 0 -4 -17 -3 -37z"/>
<path d="M229 342 c18 -6 2 -22 -22 -23 -21 0 -21 -1 -2 -8 14 -6 23 -4 30 8
8 13 11 8 16 -24 l6 -40 2 43 c1 37 4 42 24 42 18 0 19 -2 7 -10 -10 -6 -11
-10 -2 -10 8 0 12 -15 11 -42 -1 -37 -2 -39 -9 -18 l-8 25 -1 -27 c-1 -19 4
-28 14 -28 11 0 15 11 15 43 0 31 3 38 10 27 7 -11 10 -11 10 -2 0 8 5 10 13
6 8 -5 8 -3 -2 9 -7 9 -17 15 -21 12 -4 -3 -10 2 -13 10 -4 9 -19 13 -47 12
-23 -1 -37 -3 -31 -5z"/>
<path d="M860 340 c0 -5 7 -10 15 -10 8 0 15 5 15 10 0 6 -7 10 -15 10 -8 0
-15 -4 -15 -10z"/>
<path d="M116 322 c-3 -5 8 -6 25 -4 16 2 29 6 29 8 0 8 -49 4 -54 -4z"/>
<path d="M8 308 c-2 -7 -1 -31 2 -53 l6 -40 5 53 c4 48 -3 70 -13 40z"/>
<path d="M992 270 c0 -19 2 -27 5 -17 2 9 2 25 0 35 -3 9 -5 1 -5 -18z"/>
<path d="M212 260 c0 -14 2 -19 5 -12 2 6 2 18 0 25 -3 6 -5 1 -5 -13z"/>
<path d="M331 254 c0 -11 3 -14 6 -6 3 7 2 16 -1 19 -3 4 -6 -2 -5 -13z"/>
<path d="M250 197 c4 -41 5 -41 8 -8 2 18 0 37 -5 42 -5 5 -6 -11 -3 -34z"/>
<path d="M410 207 c0 -17 -31 -19 -46 -4 -4 4 -17 7 -28 6 -19 -1 -19 -1 2 -7
13 -4 23 -10 23 -14 -1 -5 -1 -26 -1 -49 0 -28 -4 -38 -12 -33 -6 4 -8 3 -5
-4 4 -5 15 -9 25 -7 9 2 22 4 27 5 6 0 2 7 -8 14 -21 17 -17 62 6 60 16 -2 34
32 23 43 -3 4 -6 -1 -6 -10z"/>
<path d="M1002 195 c0 -16 2 -22 5 -12 2 9 2 23 0 30 -3 6 -5 -1 -5 -18z"/>
<path d="M212 185 c0 -16 2 -22 5 -12 2 9 2 23 0 30 -3 6 -5 -1 -5 -18z"/>
<path d="M293 177 c-3 -6 -1 -7 5 -3 6 4 12 -5 14 -21 l3 -28 6 31 c5 30 -13
44 -28 21z"/>
<path d="M1383 173 c9 -2 23 -2 30 0 6 3 -1 5 -18 5 -16 0 -22 -2 -12 -5z"/>
<path d="M47 163 c-11 -10 -8 -20 6 -20 6 0 38 -8 70 -18 32 -9 60 -15 63 -12
2 2 -26 13 -63 23 l-68 19 60 6 60 6 -61 1 c-33 1 -64 -1 -67 -5z"/>
<path d="M1430 160 c-33 -7 -31 -7 18 -9 29 0 52 3 52 9 0 11 -17 11 -70 0z"/>
<path d="M1012 135 c0 -16 2 -22 5 -12 2 9 2 23 0 30 -3 6 -5 -1 -5 -18z"/>
<path d="M220 145 c0 -16 22 -35 41 -35 13 0 16 6 11 23 -5 18 -7 19 -10 5 -2
-10 -7 -18 -12 -18 -5 0 -14 8 -19 18 -6 9 -11 12 -11 7z"/>
<path d="M410 136 c0 -8 4 -17 9 -20 5 -4 7 3 4 14 -6 23 -13 26 -13 6z"/>
<path d="M3 50 c0 -30 2 -43 4 -28 2 16 2 40 0 55 -2 16 -4 3 -4 -27z"/>
<path d="M1398 93 c-23 -4 -28 -9 -27 -31 0 -15 5 -36 10 -47 6 -14 7 -9 3 20
l-5 41 43 -3 c35 -2 38 -1 18 6 l-25 9 28 1 c26 1 27 -2 29 -46 l1 -48 4 45
c3 24 10 48 16 52 12 8 -46 8 -95 1z"/>
<path d="M1022 70 c0 -14 2 -19 5 -12 2 6 2 18 0 25 -3 6 -5 1 -5 -13z"/>
<path d="M115 70 c11 -5 27 -9 35 -9 9 0 8 4 -5 9 -11 5 -27 9 -35 9 -9 0 -8
-4 5 -9z"/>
<path d="M1410 50 c-10 -6 -11 -10 -2 -10 6 0 12 -10 12 -22 0 -21 0 -21 15
-2 13 16 14 16 9 2 -3 -10 -1 -18 5 -18 16 0 14 29 -3 46 -17 17 -17 16 -36 4z"/>
<path d="M1032 20 c0 -14 2 -19 5 -12 2 6 2 18 0 25 -3 6 -5 1 -5 -13z"/>
<path d="M1191 14 c0 -11 3 -14 6 -6 3 7 2 16 -1 19 -3 4 -6 -2 -5 -13z"/>
</g>
</svg>
